<?xml version="1.0" encoding="iso-8859-1"?>
<!-- Generator: Adobe Illustrator 27.0.0, SVG Export Plug-In . SVG Version: 6.00 Build 0)  -->
<svg version="1.1" id="Layer_1" xmlns="http://www.w3.org/2000/svg" xmlns:xlink="http://www.w3.org/1999/xlink" x="0px" y="0px"
	 viewBox="0 0 500 500" style="enable-background:new 0 0 500 500;" xml:space="preserve">
<g id="watermark_1_">
	<g>
		<g id="watermark" style="opacity:0.61;">
			<g>
				<g>
					<g>
						<g>
							<polygon style="fill:#FFFFFF;" points="213.765,461.172 208.204,474.017 205.268,474.017 199.726,461.172 202.938,461.172 
								206.846,470.347 210.81,461.172 							"/>
						</g>
						<g>
							<path style="fill:#FFFFFF;" d="M223.507,469.741h-7.469c0.275,1.23,1.321,1.982,2.826,1.982c1.046,0,1.798-0.312,2.477-0.954
								l1.523,1.651c-0.917,1.046-2.294,1.597-4.074,1.597c-3.413,0-5.634-2.147-5.634-5.083c0-2.954,2.257-5.083,5.267-5.083
								c2.899,0,5.138,1.945,5.138,5.12C223.562,469.191,223.526,469.503,223.507,469.741 M216.002,468.071h4.863
								c-0.202-1.248-1.138-2.055-2.422-2.055C217.139,466.016,216.204,466.805,216.002,468.071"/>
						</g>
						<g>
							<path style="fill:#FFFFFF;" d="M224.735,468.934c0-2.973,2.294-5.083,5.505-5.083c2.074,0,3.707,0.899,4.423,2.514
								l-2.22,1.193c-0.532-0.936-1.321-1.358-2.221-1.358c-1.45,0-2.587,1.009-2.587,2.734c0,1.725,1.138,2.734,2.587,2.734
								c0.899,0,1.688-0.404,2.221-1.358l2.22,1.211c-0.716,1.578-2.349,2.495-4.423,2.495
								C227.029,474.017,224.735,471.907,224.735,468.934"/>
						</g>
						<g>
							<path style="fill:#FFFFFF;" d="M242.828,473.393c-0.587,0.422-1.45,0.624-2.331,0.624c-2.33,0-3.688-1.193-3.688-3.542
								v-4.055h-1.523v-2.202h1.523v-2.404h2.863v2.404h2.459v2.202h-2.459v4.019c0,0.844,0.458,1.303,1.229,1.303
								c0.422,0,0.844-0.128,1.156-0.367L242.828,473.393z"/>
						</g>
					</g>
					<g>
						<path style="fill:#FFFFFF;" d="M262.474,463.997v2.643c-0.238-0.018-0.422-0.037-0.642-0.037
							c-1.578,0-2.624,0.862-2.624,2.753v4.661h-2.863v-9.873h2.734v1.303C259.776,464.493,260.951,463.997,262.474,463.997"/>
					</g>
					<g>
						<path style="fill:#FFFFFF;" d="M263.299,472.53l1.009-2.239c1.083,0.789,2.697,1.339,4.239,1.339
							c1.762,0,2.477-0.587,2.477-1.376c0-2.404-7.469-0.752-7.469-5.524c0-2.184,1.762-4,5.413-4c1.615,0,3.267,0.385,4.459,1.138
							l-0.918,2.257c-1.193-0.679-2.422-1.009-3.56-1.009c-1.761,0-2.44,0.66-2.44,1.468c0,2.367,7.468,0.734,7.468,5.45
							c0,2.147-1.78,3.982-5.45,3.982C266.492,474.017,264.437,473.411,263.299,472.53"/>
					</g>
					<g>
						<path style="fill:#FFFFFF;" d="M285.428,469.741h-7.469c0.275,1.23,1.321,1.982,2.826,1.982c1.046,0,1.798-0.312,2.477-0.954
							l1.523,1.651c-0.918,1.046-2.294,1.597-4.074,1.597c-3.413,0-5.634-2.147-5.634-5.083c0-2.954,2.257-5.083,5.267-5.083
							c2.9,0,5.138,1.945,5.138,5.12C285.484,469.191,285.447,469.503,285.428,469.741 M277.923,468.071h4.863
							c-0.202-1.248-1.138-2.055-2.422-2.055C279.061,466.016,278.125,466.805,277.923,468.071"/>
					</g>
					<g>
						<path style="fill:#FFFFFF;" d="M297.007,469.741h-7.469c0.275,1.23,1.321,1.982,2.826,1.982c1.046,0,1.798-0.312,2.477-0.954
							l1.523,1.651c-0.918,1.046-2.294,1.597-4.074,1.597c-3.413,0-5.634-2.147-5.634-5.083c0-2.954,2.257-5.083,5.267-5.083
							c2.899,0,5.138,1.945,5.138,5.12C297.062,469.191,297.025,469.503,297.007,469.741 M289.501,468.071h4.863
							c-0.202-1.248-1.138-2.055-2.422-2.055C290.639,466.016,289.703,466.805,289.501,468.071"/>
					</g>
					<g>
						<polygon style="fill:#FFFFFF;" points="303.208,470.145 301.831,471.503 301.831,474.017 298.969,474.017 298.969,460.401 
							301.831,460.401 301.831,468.108 306.016,464.144 309.429,464.144 305.318,468.328 309.796,474.017 306.327,474.017 						"/>
					</g>
					<g>
						<path style="fill:#FFFFFF;" d="M256.601,475.359L256.601,475.359l-2.86-2.86c-0.435,0.508-0.953,0.943-1.534,1.284
							c-0.092,0.069-0.186,0.136-0.283,0.199l3.027,3.027c0.456,0.456,1.195,0.456,1.65,0
							C257.057,476.554,257.057,475.815,256.601,475.359"/>
					</g>
					<g>
						<path style="fill:#FFFFFF;" d="M249.984,463.244c0.221-0.173,0.495-0.281,0.797-0.281c0.042,0,0.083,0.002,0.124,0.006
							c-0.214-0.156-0.478-0.249-0.764-0.249c-0.395,0-0.744,0.18-0.981,0.458c-0.051,0-0.1,0.006-0.151,0.008
							c0.039-0.077,0.064-0.162,0.064-0.255c0-0.234-0.143-0.434-0.346-0.519c0.087,0.126,0.138,0.279,0.138,0.445
							c0,0.122-0.031,0.237-0.081,0.341c-2.811,0.201-5.03,2.539-5.03,5.4c0,2.993,2.426,5.42,5.42,5.42
							c2.993,0,5.42-2.426,5.42-5.42C254.595,465.879,252.593,463.635,249.984,463.244 M247.983,464.656
							c0.435,0,0.844,0.112,1.199,0.309c0.374-0.245,0.82-0.387,1.299-0.387c0.711,0,1.348,0.312,1.784,0.806
							c-0.435-0.379-1.004-0.61-1.627-0.61c-0.449,0-0.87,0.12-1.234,0.329c-0.079,0.046-0.156,0.096-0.229,0.15
							c-0.065-0.048-0.133-0.093-0.204-0.134c-0.369-0.219-0.8-0.344-1.26-0.344c-0.3,0-0.588,0.054-0.854,0.152
							C247.196,464.754,247.578,464.656,247.983,464.656 M251.772,469.098c0.115,0.305,0.181,0.634,0.181,0.979
							c0,1.534-1.244,2.777-2.778,2.777c-1.534,0-2.777-1.243-2.777-2.777c0-0.345,0.066-0.674,0.181-0.979
							c-0.62-0.382-1.035-1.064-1.035-1.846c0-1.197,0.971-2.168,2.168-2.168c0.565,0,1.078,0.218,1.463,0.572
							c0.386-0.354,0.899-0.572,1.464-0.572c1.197,0,2.168,0.971,2.168,2.168C252.807,468.034,252.392,468.716,251.772,469.098"/>
					</g>
					<g>
						<path style="fill:#FFFFFF;" d="M251.666,467.061c0,0.497-0.404,0.901-0.901,0.901c-0.497,0-0.901-0.404-0.901-0.901
							s0.404-0.901,0.901-0.901c0.101,0,0.197,0.017,0.287,0.047c-0.03,0.062-0.045,0.132-0.045,0.204
							c0,0.273,0.221,0.494,0.494,0.494c0.05,0,0.099-0.008,0.146-0.022C251.66,466.941,251.666,467,251.666,467.061"/>
					</g>
					<g>
						<path style="fill:#FFFFFF;" d="M248.255,467.061c0,0.376-0.305,0.681-0.681,0.681c-0.376,0-0.681-0.305-0.681-0.681
							s0.305-0.681,0.681-0.681c0.076,0,0.149,0.013,0.217,0.035c-0.023,0.047-0.034,0.1-0.034,0.155
							c0,0.206,0.167,0.374,0.374,0.374c0.038,0,0.075-0.006,0.11-0.017C248.25,466.97,248.255,467.015,248.255,467.061"/>
					</g>
					<g>
						<g>
							<g>
								<rect x="242.908" y="467.83" style="fill:#FFFFFF;" width="0.616" height="0.616"/>
							</g>
							<g>
								<rect x="254.827" y="467.83" style="fill:#FFFFFF;" width="0.616" height="0.616"/>
							</g>
							<g>
								<path style="fill:#FFFFFF;" d="M255.205,468.082h-0.14c0-3.248-2.642-5.89-5.89-5.89c-3.248,0-5.89,2.642-5.89,5.89h-0.14
									c0-1.611,0.627-3.125,1.766-4.264c1.139-1.139,2.653-1.766,4.264-1.766c1.611,0,3.125,0.627,4.264,1.766
									C254.578,464.957,255.205,466.471,255.205,468.082"/>
							</g>
						</g>
						<g>
							<rect x="248.868" y="461.814" style="fill:#FFFFFF;" width="0.616" height="0.616"/>
						</g>
						<g>
							<rect x="244.95" y="462.052" style="fill:#FFFFFF;" width="8.45" height="0.14"/>
						</g>
						<g>
							<path style="fill:#FFFFFF;" d="M245.174,462.15c0,0.108-0.088,0.196-0.196,0.196c-0.108,0-0.196-0.088-0.196-0.196
								c0-0.108,0.088-0.196,0.196-0.196C245.086,461.954,245.174,462.042,245.174,462.15"/>
						</g>
						<g>
							<path style="fill:#FFFFFF;" d="M253.596,462.15c0,0.108-0.088,0.196-0.196,0.196c-0.108,0-0.196-0.088-0.196-0.196
								c0-0.108,0.088-0.196,0.196-0.196C253.509,461.954,253.596,462.042,253.596,462.15"/>
						</g>
					</g>
				</g>
				<g>
					<path style="fill:#FFFFFF;" d="M314.356,473.409c0,1.559-2.364,1.559-2.364,0C311.993,471.851,314.356,471.851,314.356,473.409
						z"/>
				</g>
				<g>
					<g>
						<g>
							<path style="fill:#FFFFFF;" d="M161.739,466.549l1.772,6.088l1.855-6.088h2.215l-2.823,8.14h-2.33l-0.837-2.396l-0.722-2.708
								l-0.722,2.708l-0.837,2.396h-2.33l-2.839-8.14h2.231l1.855,6.088l1.756-6.088H161.739z"/>
						</g>
						<g>
							<path style="fill:#FFFFFF;" d="M176.713,466.549l1.772,6.088l1.855-6.088h2.215l-2.823,8.14h-2.33l-0.837-2.396l-0.722-2.708
								l-0.722,2.708l-0.837,2.396h-2.33l-2.839-8.14h2.231l1.855,6.088l1.756-6.088H176.713z"/>
						</g>
						<g>
							<path style="fill:#FFFFFF;" d="M191.687,466.549l1.772,6.088l1.855-6.088h2.215l-2.823,8.14h-2.33l-0.837-2.396l-0.722-2.708
								l-0.722,2.708l-0.837,2.396h-2.33l-2.839-8.14h2.231l1.855,6.088l1.756-6.088H191.687z"/>
						</g>
					</g>
					<g>
						<path style="fill:#FFFFFF;" d="M200.908,473.52c0,1.559-2.364,1.559-2.364,0C198.545,471.962,200.908,471.962,200.908,473.52z
							"/>
					</g>
					<g>
						<path style="fill:#FFFFFF;" d="M322.71,473.409c-0.935,0.919-1.919,1.28-3.117,1.28c-2.346,0-4.3-1.411-4.3-4.282
							s1.953-4.284,4.3-4.284c1.149,0,2.035,0.329,2.921,1.199l-1.264,1.329c-0.476-0.428-1.066-0.64-1.623-0.64
							c-1.346,0-2.33,0.985-2.33,2.396c0,1.542,1.05,2.362,2.297,2.362c0.64,0,1.28-0.18,1.772-0.672L322.71,473.409z"/>
					</g>
					<g>
						<path style="fill:#FFFFFF;" d="M331.805,470.472c0,2.33-1.591,4.217-4.217,4.217c-2.626,0-4.201-1.887-4.201-4.217
							c0-2.314,1.609-4.217,4.185-4.217C330.149,466.255,331.805,468.158,331.805,470.472z M325.389,470.472
							c0,1.231,0.739,2.38,2.199,2.38c1.46,0,2.199-1.149,2.199-2.38c0-1.215-0.854-2.396-2.199-2.396
							C326.144,468.077,325.389,469.258,325.389,470.472z"/>
					</g>
					<g>
						<path style="fill:#FFFFFF;" d="M338.572,474.689v-4.332c0-1.068-0.559-2.035-1.658-2.035c-1.082,0-1.722,0.967-1.722,2.035
							v4.332h-2.003v-8.107h1.855l0.148,0.985c0.426-0.82,1.362-1.116,2.133-1.116c0.969,0,1.937,0.394,2.396,1.51
							c0.723-1.149,1.658-1.478,2.708-1.478c2.297,0,3.43,1.412,3.43,3.84v4.365h-2.003v-4.365c0-1.066-0.442-1.97-1.526-1.97
							c-1.082,0-1.756,0.935-1.756,2.003v4.332H338.572z"/>
					</g>
				</g>
			</g>
		</g>
		<g style="opacity:0.61;">
			<g>
				<g>
					<path style="fill:#FFFFFF;" d="M345.988,431.299c-0.006-1.224-0.959-2.121-2.189-2.14c-0.924-0.014-0.832,0.12-0.834-0.867
						c-0.003-1.097-0.007-2.194,0.003-3.292c0.003-0.379-0.112-0.691-0.362-0.976c-2.342-2.668-4.678-5.342-7.019-8.011
						c-0.12-0.137-0.275-0.244-0.414-0.366c-6.214,0-12.427,0-18.641,0c-0.794,0.293-1.14,0.868-1.138,1.709
						c0.01,3.748,0.004,7.496,0.004,11.243c0,0.556-0.003,0.589-0.55,0.551c-1.497-0.102-2.516,0.986-2.497,2.492
						c0.044,3.476,0.013,6.953,0.014,10.429c0.001,1.58,0.867,2.443,2.45,2.449c0.582,0.002,0.582,0.002,0.582,0.6
						c0,2.219-0.001,4.438,0.001,6.657c0.001,1.192,0.58,1.771,1.768,1.771c8.013,0.001,16.027,0.001,24.04,0
						c1.168,0,1.755-0.583,1.757-1.745c0.002-2.256,0-4.512,0.001-6.768c0-0.512,0.002-0.511,0.52-0.515
						c0.271-0.002,0.541,0.008,0.809-0.058c0.996-0.246,1.69-1.044,1.694-2.069C346.003,438.696,346.005,434.997,345.988,431.299z
						 M317.537,417.162c5.337,0,10.674,0,16.01,0c0.548,0,0.554,0.007,0.554,0.561c0.001,2.243-0.001,4.486,0.001,6.73
						c0.001,0.811,0.249,1.059,1.06,1.059c1.91,0.001,3.821,0,5.731,0.001c0.458,0,0.479,0.021,0.481,0.483
						c0.003,0.887,0.002,1.775,0,2.662c-0.001,0.477-0.024,0.498-0.504,0.499c-3.895,0.001-7.79,0-11.684,0
						c-3.882,0-7.765,0-11.647,0c-0.55,0-0.552-0.001-0.552-0.561c-0.001-3.624-0.001-7.247,0-10.871
						C316.987,417.166,316.991,417.162,317.537,417.162z M340.822,451.579c-3.883,0.001-7.766,0-11.65,0c-3.871,0-7.742,0-11.613,0
						c-0.572,0-0.574-0.002-0.574-0.579c-0.001-1.997-0.001-3.994,0.001-5.991c0-0.464,0.023-0.486,0.478-0.487
						c7.803-0.001,15.607-0.001,23.41,0c0.478,0,0.499,0.02,0.499,0.503c0.002,1.997,0.001,3.994,0,5.991
						C341.375,451.574,341.37,451.579,340.822,451.579z"/>
				</g>
				<g>
					<g>
						<rect x="327.418" y="417.053" style="fill:#FFFFFF;" width="1.757" height="1.054"/>
					</g>
					<g>
						<rect x="325.662" y="418.107" style="fill:#FFFFFF;" width="1.757" height="1.054"/>
					</g>
					<g>
						<rect x="327.418" y="419.161" style="fill:#FFFFFF;" width="1.757" height="1.054"/>
					</g>
					<g>
						<rect x="325.662" y="420.215" style="fill:#FFFFFF;" width="1.757" height="1.054"/>
					</g>
					<g>
						<rect x="327.418" y="421.269" style="fill:#FFFFFF;" width="1.757" height="1.054"/>
					</g>
					<g>
						<rect x="325.662" y="422.323" style="fill:#FFFFFF;" width="1.757" height="1.054"/>
					</g>
					<g>
						<rect x="327.418" y="423.378" style="fill:#FFFFFF;" width="1.757" height="1.054"/>
					</g>
					<g>
						<rect x="325.662" y="424.432" style="fill:#FFFFFF;" width="1.757" height="1.054"/>
					</g>
					<g>
						<rect x="327.418" y="425.486" style="fill:#FFFFFF;" width="1.757" height="1.054"/>
					</g>
					<g>
						<rect x="325.662" y="426.54" style="fill:#FFFFFF;" width="1.757" height="1.054"/>
					</g>
					<g>
						<rect x="327.418" y="427.594" style="fill:#FFFFFF;" width="1.757" height="1.054"/>
					</g>
					<g>
						<rect x="325.662" y="428.648" style="fill:#FFFFFF;" width="1.757" height="1.054"/>
					</g>
				</g>
			</g>
			<g>
				<path style="fill:#FFFFFF;" d="M187.637,431.299c-0.006-1.224-0.959-2.121-2.189-2.14c-0.924-0.014-0.832,0.12-0.834-0.867
					c-0.003-1.097-0.007-2.194,0.003-3.292c0.003-0.379-0.112-0.691-0.362-0.976c-2.342-2.668-4.678-5.342-7.019-8.011
					c-0.12-0.137-0.275-0.244-0.414-0.366c-6.214,0-12.427,0-18.641,0c-0.794,0.293-1.14,0.868-1.138,1.709
					c0.01,3.748,0.004,7.496,0.004,11.243c0,0.556-0.003,0.589-0.55,0.551c-1.497-0.102-2.516,0.986-2.497,2.492
					c0.044,3.476,0.013,6.953,0.014,10.429c0.001,1.58,0.867,2.443,2.45,2.449c0.582,0.002,0.582,0.002,0.582,0.6
					c0,2.219-0.001,4.438,0.001,6.657c0.001,1.192,0.58,1.771,1.768,1.771c8.013,0.001,16.027,0.001,24.04,0
					c1.168,0,1.755-0.583,1.757-1.745c0.002-2.256,0-4.512,0.001-6.768c0-0.512,0.002-0.511,0.52-0.515
					c0.271-0.002,0.541,0.008,0.809-0.058c0.996-0.246,1.69-1.044,1.694-2.069C187.652,438.696,187.655,434.997,187.637,431.299z
					 M159.187,417.162c5.337,0,10.674,0,16.01,0c0.548,0,0.554,0.007,0.554,0.561c0.001,2.243-0.001,4.486,0.001,6.73
					c0.001,0.811,0.249,1.059,1.06,1.059c1.91,0.001,3.821,0,5.731,0.001c0.458,0,0.479,0.021,0.481,0.483
					c0.003,0.887,0.002,1.775,0,2.662c-0.001,0.477-0.024,0.498-0.504,0.499c-3.895,0.001-7.79,0-11.684,0
					c-3.882,0-7.765,0-11.647,0c-0.55,0-0.552-0.001-0.552-0.561c-0.001-3.624-0.001-7.247,0-10.871
					C158.636,417.166,158.64,417.162,159.187,417.162z M182.472,451.579c-3.883,0.001-7.766,0-11.65,0c-3.871,0-7.742,0-11.613,0
					c-0.572,0-0.574-0.002-0.574-0.579c-0.001-1.997-0.001-3.994,0.001-5.991c0-0.464,0.023-0.486,0.478-0.487
					c7.803-0.001,15.607-0.001,23.41,0c0.478,0,0.499,0.02,0.499,0.503c0.002,1.997,0.001,3.994,0,5.991
					C183.024,451.574,183.019,451.579,182.472,451.579z"/>
			</g>
			<g>
				<path style="fill:#FFFFFF;" d="M159.779,440.669v-7.897h2.779c0.375,0,0.726,0.061,1.053,0.182
					c0.327,0.121,0.612,0.292,0.855,0.513c0.242,0.221,0.434,0.483,0.573,0.789c0.14,0.305,0.21,0.642,0.21,1.009
					c0,0.375-0.07,0.715-0.21,1.02c-0.14,0.305-0.331,0.568-0.573,0.789c-0.243,0.221-0.528,0.392-0.855,0.513
					c-0.327,0.121-0.678,0.182-1.053,0.182h-1.29v2.901H159.779z M162.58,436.356c0.39,0,0.684-0.111,0.882-0.331
					c0.199-0.22,0.298-0.474,0.298-0.761c0-0.14-0.024-0.276-0.072-0.408c-0.048-0.132-0.121-0.248-0.221-0.347
					c-0.099-0.099-0.223-0.178-0.37-0.237c-0.147-0.059-0.32-0.089-0.518-0.089h-1.312v2.173H162.58z"/>
				<path style="fill:#FFFFFF;" d="M166.308,432.771h1.731l3.177,5.294h0.088l-0.088-1.522v-3.772h1.478v7.897h-1.566l-3.353-5.592
					h-0.088l0.088,1.522v4.07h-1.467V432.771z"/>
				<path style="fill:#FFFFFF;" d="M177.922,436.334h3.872c0.022,0.089,0.04,0.195,0.055,0.32c0.014,0.125,0.022,0.25,0.022,0.375
					c0,0.507-0.077,0.985-0.231,1.434c-0.154,0.449-0.397,0.849-0.728,1.202c-0.353,0.375-0.776,0.666-1.268,0.871
					c-0.493,0.206-1.055,0.309-1.688,0.309c-0.574,0-1.114-0.103-1.622-0.309c-0.507-0.206-0.948-0.492-1.323-0.86
					c-0.375-0.367-0.673-0.803-0.894-1.307c-0.221-0.504-0.331-1.053-0.331-1.649c0-0.595,0.11-1.145,0.331-1.649
					c0.221-0.504,0.518-0.939,0.894-1.307c0.375-0.367,0.816-0.654,1.323-0.86c0.507-0.206,1.048-0.309,1.622-0.309
					c0.64,0,1.211,0.11,1.715,0.331c0.504,0.221,0.935,0.526,1.296,0.915l-1.025,1.004c-0.258-0.272-0.544-0.48-0.861-0.623
					c-0.316-0.143-0.695-0.215-1.136-0.215c-0.361,0-0.703,0.065-1.026,0.193c-0.324,0.129-0.607,0.311-0.85,0.546
					c-0.242,0.235-0.436,0.52-0.579,0.855c-0.143,0.335-0.215,0.708-0.215,1.119c0,0.412,0.072,0.785,0.215,1.12
					c0.143,0.335,0.338,0.62,0.584,0.855c0.246,0.235,0.531,0.418,0.855,0.546c0.323,0.129,0.669,0.193,1.037,0.193
					c0.419,0,0.773-0.061,1.064-0.182c0.29-0.121,0.538-0.278,0.744-0.469c0.148-0.132,0.275-0.3,0.381-0.502
					c0.106-0.202,0.189-0.428,0.248-0.678h-2.482V436.334z"/>
			</g>
			<g>
				<path style="fill:#FFFFFF;" d="M224.019,431.299c-0.006-1.224-0.959-2.121-2.189-2.14c-0.924-0.014-0.832,0.12-0.834-0.867
					c-0.003-1.097-0.007-2.194,0.003-3.292c0.003-0.379-0.112-0.691-0.362-0.976c-2.342-2.668-4.678-5.342-7.019-8.011
					c-0.12-0.137-0.275-0.244-0.414-0.366c-6.214,0-12.427,0-18.641,0c-0.794,0.293-1.14,0.868-1.138,1.709
					c0.01,3.748,0.004,7.496,0.004,11.243c0,0.556-0.003,0.589-0.55,0.551c-1.497-0.102-2.516,0.986-2.497,2.492
					c0.044,3.476,0.013,6.953,0.014,10.429c0.001,1.58,0.867,2.443,2.45,2.449c0.582,0.002,0.582,0.002,0.582,0.6
					c0,2.219-0.001,4.438,0.001,6.657c0.001,1.192,0.58,1.771,1.768,1.771c8.013,0.001,16.027,0.001,24.04,0
					c1.168,0,1.755-0.583,1.757-1.745c0.002-2.256,0-4.512,0.001-6.768c0-0.512,0.002-0.511,0.52-0.515
					c0.271-0.002,0.541,0.008,0.809-0.058c0.997-0.246,1.69-1.044,1.694-2.069C224.034,438.696,224.036,434.997,224.019,431.299z
					 M195.568,417.162c5.337,0,10.674,0,16.01,0c0.548,0,0.554,0.007,0.554,0.561c0.001,2.243-0.001,4.486,0.001,6.73
					c0.001,0.811,0.249,1.059,1.06,1.059c1.91,0.001,3.821,0,5.731,0.001c0.458,0,0.479,0.021,0.481,0.483
					c0.003,0.887,0.002,1.775,0,2.662c-0.001,0.477-0.024,0.498-0.504,0.499c-3.895,0.001-7.79,0-11.684,0
					c-3.882,0-7.765,0-11.647,0c-0.55,0-0.552-0.001-0.552-0.561c-0.001-3.624-0.001-7.247,0-10.871
					C195.018,417.166,195.022,417.162,195.568,417.162z M218.854,451.579c-3.883,0.001-7.766,0-11.65,0c-3.871,0-7.742,0-11.613,0
					c-0.572,0-0.574-0.002-0.574-0.579c-0.001-1.997-0.001-3.994,0.001-5.991c0-0.464,0.023-0.486,0.478-0.487
					c7.803-0.001,15.607-0.001,23.41,0c0.478,0,0.499,0.02,0.499,0.503c0.002,1.997,0.001,3.994,0,5.991
					C219.406,451.574,219.401,451.579,218.854,451.579z"/>
			</g>
			<g>
				<path style="fill:#FFFFFF;" d="M205.111,432.771h1.699l2.967,7.897h-1.644l-0.651-1.886h-3.044l-0.651,1.886h-1.643
					L205.111,432.771z M206.997,437.415l-0.706-1.974l-0.287-0.96h-0.088l-0.287,0.96l-0.706,1.974H206.997z"/>
				<path style="fill:#FFFFFF;" d="M211.331,434.536c-0.125,0-0.245-0.024-0.359-0.072c-0.114-0.048-0.213-0.114-0.298-0.199
					c-0.084-0.084-0.151-0.182-0.198-0.292c-0.048-0.11-0.072-0.232-0.072-0.364s0.024-0.254,0.072-0.364
					c0.048-0.11,0.114-0.208,0.198-0.292c0.084-0.084,0.184-0.151,0.298-0.198c0.114-0.048,0.233-0.072,0.359-0.072
					c0.257,0,0.478,0.09,0.662,0.27c0.184,0.181,0.276,0.399,0.276,0.656s-0.092,0.476-0.276,0.656
					C211.809,434.446,211.589,434.536,211.331,434.536z M210.615,440.669v-5.404h1.445v5.404H210.615z"/>
			</g>
			<g>
				<path style="fill:#FFFFFF;" d="M261.044,431.299c-0.006-1.224-0.959-2.121-2.189-2.14c-0.924-0.014-0.832,0.12-0.834-0.867
					c-0.003-1.097-0.007-2.194,0.003-3.292c0.003-0.379-0.112-0.691-0.362-0.976c-2.342-2.668-4.678-5.342-7.019-8.011
					c-0.12-0.137-0.275-0.244-0.414-0.366c-6.214,0-12.427,0-18.641,0c-0.794,0.293-1.14,0.868-1.138,1.709
					c0.01,3.748,0.004,7.496,0.004,11.243c0,0.556-0.003,0.589-0.55,0.551c-1.497-0.102-2.516,0.986-2.497,2.492
					c0.044,3.476,0.013,6.953,0.014,10.429c0.001,1.58,0.867,2.443,2.45,2.449c0.582,0.002,0.582,0.002,0.582,0.6
					c0,2.219-0.001,4.438,0.001,6.657c0.001,1.192,0.58,1.771,1.768,1.771c8.013,0.001,16.027,0.001,24.04,0
					c1.168,0,1.755-0.583,1.757-1.745c0.002-2.256,0-4.512,0.001-6.768c0-0.512,0.002-0.511,0.52-0.515
					c0.271-0.002,0.541,0.008,0.809-0.058c0.996-0.246,1.69-1.044,1.694-2.069C261.059,438.696,261.061,434.997,261.044,431.299z
					 M232.593,417.162c5.337,0,10.674,0,16.01,0c0.548,0,0.554,0.007,0.554,0.561c0.001,2.243-0.001,4.486,0.001,6.73
					c0.001,0.811,0.249,1.059,1.06,1.059c1.91,0.001,3.821,0,5.731,0.001c0.458,0,0.479,0.021,0.481,0.483
					c0.003,0.887,0.002,1.775,0,2.662c-0.001,0.477-0.024,0.498-0.504,0.499c-3.895,0.001-7.79,0-11.684,0
					c-3.882,0-7.765,0-11.647,0c-0.55,0-0.552-0.001-0.552-0.561c-0.001-3.624-0.001-7.247,0-10.871
					C232.042,417.166,232.047,417.162,232.593,417.162z M255.878,451.579c-3.883,0.001-7.766,0-11.65,0c-3.871,0-7.742,0-11.613,0
					c-0.572,0-0.574-0.002-0.574-0.579c-0.001-1.997-0.001-3.994,0.001-5.991c0-0.464,0.023-0.486,0.478-0.487
					c7.803-0.001,15.607-0.001,23.41,0c0.478,0,0.499,0.02,0.499,0.503c0.002,1.997,0.001,3.994,0,5.991
					C256.431,451.574,256.426,451.579,255.878,451.579z"/>
			</g>
			<g>
				<path style="fill:#FFFFFF;" d="M236.361,440.845c-0.338,0-0.662-0.048-0.971-0.143c-0.309-0.095-0.592-0.239-0.849-0.43
					c-0.257-0.191-0.481-0.425-0.673-0.7c-0.191-0.276-0.342-0.597-0.452-0.965l1.401-0.551c0.103,0.397,0.283,0.726,0.54,0.987
					c0.257,0.261,0.596,0.392,1.015,0.392c0.154,0,0.303-0.02,0.447-0.061c0.143-0.04,0.272-0.099,0.386-0.176
					s0.204-0.175,0.27-0.292c0.066-0.118,0.099-0.254,0.099-0.408c0-0.147-0.026-0.279-0.077-0.397
					c-0.051-0.117-0.138-0.227-0.259-0.331c-0.121-0.103-0.28-0.202-0.475-0.298c-0.195-0.095-0.435-0.195-0.722-0.298l-0.485-0.176
					c-0.213-0.073-0.429-0.173-0.645-0.298c-0.217-0.125-0.413-0.276-0.59-0.452c-0.177-0.176-0.322-0.384-0.436-0.623
					c-0.114-0.239-0.171-0.509-0.171-0.81c0-0.309,0.06-0.597,0.182-0.866c0.121-0.268,0.294-0.503,0.518-0.706
					c0.224-0.202,0.492-0.36,0.805-0.474s0.66-0.171,1.042-0.171c0.397,0,0.74,0.053,1.031,0.16
					c0.291,0.107,0.537,0.243,0.739,0.408c0.202,0.165,0.366,0.348,0.491,0.546c0.125,0.199,0.217,0.386,0.276,0.563l-1.312,0.551
					c-0.074-0.221-0.208-0.419-0.402-0.596c-0.195-0.176-0.462-0.265-0.8-0.265c-0.324,0-0.592,0.075-0.805,0.226
					c-0.213,0.151-0.32,0.348-0.32,0.59c0,0.235,0.103,0.436,0.309,0.601c0.206,0.165,0.533,0.325,0.982,0.48l0.497,0.165
					c0.316,0.111,0.605,0.237,0.866,0.381c0.261,0.143,0.485,0.314,0.673,0.513c0.187,0.199,0.331,0.425,0.43,0.678
					c0.1,0.254,0.149,0.546,0.149,0.877c0,0.412-0.083,0.767-0.248,1.064c-0.165,0.298-0.377,0.542-0.634,0.734
					c-0.258,0.191-0.548,0.335-0.872,0.43C236.986,440.797,236.67,440.845,236.361,440.845z"/>
				<path style="fill:#FFFFFF;" d="M239.516,432.771h1.61l1.633,4.754l0.287,1.015h0.088l0.309-1.015l1.699-4.754h1.61l-2.879,7.897
					h-1.566L239.516,432.771z"/>
				<path style="fill:#FFFFFF;" d="M251.097,436.334h3.871c0.022,0.089,0.04,0.195,0.055,0.32c0.015,0.125,0.023,0.25,0.023,0.375
					c0,0.507-0.078,0.985-0.232,1.434c-0.154,0.449-0.397,0.849-0.728,1.202c-0.353,0.375-0.775,0.666-1.268,0.871
					c-0.493,0.206-1.055,0.309-1.688,0.309c-0.574,0-1.114-0.103-1.621-0.309c-0.507-0.206-0.949-0.492-1.324-0.86
					c-0.375-0.367-0.673-0.803-0.894-1.307c-0.22-0.504-0.331-1.053-0.331-1.649c0-0.595,0.11-1.145,0.331-1.649
					c0.221-0.504,0.518-0.939,0.894-1.307c0.375-0.367,0.816-0.654,1.324-0.86c0.507-0.206,1.047-0.309,1.621-0.309
					c0.64,0,1.211,0.11,1.715,0.331c0.504,0.221,0.936,0.526,1.296,0.915l-1.026,1.004c-0.257-0.272-0.544-0.48-0.861-0.623
					c-0.316-0.143-0.694-0.215-1.136-0.215c-0.36,0-0.702,0.065-1.026,0.193c-0.323,0.129-0.607,0.311-0.849,0.546
					c-0.243,0.235-0.436,0.52-0.579,0.855c-0.143,0.335-0.215,0.708-0.215,1.119c0,0.412,0.072,0.785,0.215,1.12
					c0.143,0.335,0.338,0.62,0.585,0.855c0.246,0.235,0.531,0.418,0.854,0.546c0.324,0.129,0.669,0.193,1.037,0.193
					c0.419,0,0.774-0.061,1.064-0.182c0.29-0.121,0.539-0.278,0.745-0.469c0.147-0.132,0.274-0.3,0.38-0.502
					c0.107-0.202,0.189-0.428,0.248-0.678h-2.482V436.334z"/>
			</g>
			<g>
				<path style="fill:#FFFFFF;" d="M297.3,431.299c-0.006-1.224-0.959-2.121-2.189-2.14c-0.924-0.014-0.832,0.12-0.834-0.867
					c-0.003-1.097-0.007-2.194,0.003-3.292c0.003-0.379-0.112-0.691-0.362-0.976c-2.342-2.668-4.678-5.342-7.019-8.011
					c-0.12-0.137-0.275-0.244-0.414-0.366c-6.214,0-12.427,0-18.641,0c-0.794,0.293-1.14,0.868-1.138,1.709
					c0.01,3.748,0.004,7.496,0.004,11.243c0,0.556-0.003,0.589-0.55,0.551c-1.497-0.102-2.516,0.986-2.497,2.492
					c0.044,3.476,0.013,6.953,0.014,10.429c0.001,1.58,0.867,2.443,2.45,2.449c0.582,0.002,0.582,0.002,0.582,0.6
					c0,2.219-0.001,4.438,0.001,6.657c0.001,1.192,0.58,1.771,1.768,1.771c8.013,0.001,16.027,0.001,24.04,0
					c1.168,0,1.755-0.583,1.757-1.745c0.002-2.256,0-4.512,0.001-6.768c0-0.512,0.002-0.511,0.52-0.515
					c0.271-0.002,0.541,0.008,0.809-0.058c0.996-0.246,1.69-1.044,1.694-2.069C297.315,438.696,297.318,434.997,297.3,431.299z
					 M268.85,417.162c5.337,0,10.674,0,16.01,0c0.548,0,0.554,0.007,0.554,0.561c0.001,2.243-0.001,4.486,0.001,6.73
					c0.001,0.811,0.249,1.059,1.06,1.059c1.91,0.001,3.821,0,5.731,0.001c0.458,0,0.479,0.021,0.481,0.483
					c0.003,0.887,0.002,1.775,0,2.662c-0.001,0.477-0.024,0.498-0.504,0.499c-3.895,0.001-7.79,0-11.684,0
					c-3.882,0-7.765,0-11.647,0c-0.55,0-0.552-0.001-0.552-0.561c-0.001-3.624-0.001-7.247,0-10.871
					C268.299,417.166,268.303,417.162,268.85,417.162z M292.135,451.579c-3.883,0.001-7.766,0-11.65,0c-3.871,0-7.742,0-11.613,0
					c-0.572,0-0.574-0.002-0.574-0.579c-0.001-1.997-0.001-3.994,0.001-5.991c0-0.464,0.023-0.486,0.478-0.487
					c7.803-0.001,15.607-0.001,23.41,0c0.478,0,0.499,0.02,0.499,0.503c0.001,1.997,0.001,3.994,0,5.991
					C292.687,451.574,292.682,451.579,292.135,451.579z"/>
			</g>
			<g>
				<path style="fill:#FFFFFF;" d="M272.966,434.183v1.831h3.165v1.412h-3.165v1.831h3.518v1.412h-5.007v-7.897h5.007v1.412H272.966
					z"/>
				<path style="fill:#FFFFFF;" d="M277.852,440.669v-7.897h2.779c0.375,0,0.726,0.061,1.053,0.182
					c0.327,0.121,0.612,0.292,0.855,0.513c0.243,0.221,0.434,0.483,0.574,0.789c0.14,0.305,0.209,0.642,0.209,1.009
					c0,0.375-0.07,0.715-0.209,1.02c-0.14,0.305-0.331,0.568-0.574,0.789c-0.243,0.221-0.528,0.392-0.855,0.513
					c-0.327,0.121-0.678,0.182-1.053,0.182h-1.29v2.901H277.852z M280.653,436.356c0.389,0,0.684-0.111,0.882-0.331
					c0.199-0.22,0.298-0.474,0.298-0.761c0-0.14-0.024-0.276-0.072-0.408c-0.048-0.132-0.121-0.248-0.221-0.347
					c-0.099-0.099-0.222-0.178-0.37-0.237c-0.147-0.059-0.32-0.089-0.518-0.089h-1.312v2.173H280.653z"/>
				<path style="fill:#FFFFFF;" d="M286.797,440.845c-0.338,0-0.662-0.048-0.971-0.143c-0.309-0.095-0.592-0.239-0.849-0.43
					c-0.257-0.191-0.482-0.425-0.673-0.7c-0.191-0.276-0.342-0.597-0.452-0.965l1.401-0.551c0.103,0.397,0.283,0.726,0.541,0.987
					c0.257,0.261,0.595,0.392,1.015,0.392c0.154,0,0.303-0.02,0.447-0.061c0.143-0.04,0.272-0.099,0.386-0.176
					c0.114-0.077,0.204-0.175,0.27-0.292c0.066-0.118,0.1-0.254,0.1-0.408c0-0.147-0.026-0.279-0.077-0.397
					c-0.051-0.117-0.138-0.227-0.259-0.331c-0.121-0.103-0.279-0.202-0.474-0.298c-0.195-0.095-0.436-0.195-0.723-0.298
					l-0.485-0.176c-0.213-0.073-0.428-0.173-0.645-0.298c-0.217-0.125-0.414-0.276-0.59-0.452c-0.176-0.176-0.322-0.384-0.436-0.623
					c-0.114-0.239-0.171-0.509-0.171-0.81c0-0.309,0.061-0.597,0.182-0.866c0.121-0.268,0.294-0.503,0.518-0.706
					c0.224-0.202,0.493-0.36,0.805-0.474c0.312-0.114,0.66-0.171,1.042-0.171c0.397,0,0.741,0.053,1.031,0.16
					c0.29,0.107,0.537,0.243,0.739,0.408c0.202,0.165,0.365,0.348,0.491,0.546c0.125,0.199,0.217,0.386,0.276,0.563l-1.312,0.551
					c-0.074-0.221-0.208-0.419-0.403-0.596c-0.195-0.176-0.462-0.265-0.799-0.265c-0.324,0-0.592,0.075-0.805,0.226
					c-0.213,0.151-0.32,0.348-0.32,0.59c0,0.235,0.103,0.436,0.309,0.601c0.206,0.165,0.533,0.325,0.982,0.48l0.496,0.165
					c0.316,0.111,0.605,0.237,0.866,0.381c0.261,0.143,0.485,0.314,0.673,0.513c0.187,0.199,0.331,0.425,0.43,0.678
					c0.099,0.254,0.149,0.546,0.149,0.877c0,0.412-0.083,0.767-0.248,1.064c-0.165,0.298-0.377,0.542-0.634,0.734
					c-0.258,0.191-0.548,0.335-0.872,0.43C287.422,440.797,287.105,440.845,286.797,440.845z"/>
			</g>
			<g>
				<path style="fill:#FFFFFF;" d="M321.394,439.168l4.004-4.985h-3.827v-1.412h5.559v1.5l-3.96,4.985h4.004v1.412h-5.779V439.168z"
					/>
				<path style="fill:#FFFFFF;" d="M328.409,432.771h1.489v7.897h-1.489V432.771z"/>
				<path style="fill:#FFFFFF;" d="M331.486,440.669v-7.897h2.779c0.375,0,0.726,0.061,1.053,0.182
					c0.327,0.121,0.612,0.292,0.855,0.513s0.434,0.483,0.574,0.789c0.14,0.305,0.209,0.642,0.209,1.009
					c0,0.375-0.07,0.715-0.209,1.02c-0.14,0.305-0.331,0.568-0.574,0.789c-0.243,0.221-0.528,0.392-0.855,0.513
					c-0.327,0.121-0.678,0.182-1.053,0.182h-1.29v2.901H331.486z M334.288,436.356c0.389,0,0.684-0.111,0.882-0.331
					c0.199-0.22,0.298-0.474,0.298-0.761c0-0.14-0.024-0.276-0.072-0.408c-0.048-0.132-0.121-0.248-0.221-0.347
					c-0.099-0.099-0.222-0.178-0.37-0.237c-0.147-0.059-0.32-0.089-0.518-0.089h-1.312v2.173H334.288z"/>
			</g>
		</g>
		<g style="opacity:0.61;">
			<path style="fill:#FFFFFF;" d="M300.133,433.27h9.067v2.242h-9.067V433.27z M300.133,437.136h9.067v2.243h-9.067V437.136z"/>
		</g>
	</g>
	<g style="opacity:0.61;">
		<path style="fill:#FFFFFF;" d="M156.756,478.878h1.607c1.263,0,2.114,0.812,2.114,1.974c0,1.161-0.851,1.973-2.114,1.973h-1.607
			V478.878z M158.34,482.464c1.049,0,1.725-0.665,1.725-1.612c0-0.947-0.677-1.613-1.725-1.613h-1.167v3.225H158.34z"/>
		<path style="fill:#FFFFFF;" d="M165.139,480.851c0-1.15,0.879-2.007,2.075-2.007c1.184,0,2.069,0.851,2.069,2.007
			c0,1.156-0.885,2.007-2.069,2.007C166.019,482.858,165.139,482.002,165.139,480.851z M168.866,480.851
			c0-0.942-0.705-1.635-1.652-1.635c-0.953,0-1.663,0.693-1.663,1.635c0,0.941,0.71,1.635,1.663,1.635
			C168.162,482.486,168.866,481.793,168.866,480.851z"/>
		<path style="fill:#FFFFFF;" d="M179.596,478.878l-1.331,3.947h-0.44l-1.156-3.366l-1.161,3.366h-0.434l-1.331-3.947h0.429
			l1.139,3.394l1.178-3.394h0.389l1.161,3.411l1.156-3.411H179.596z"/>
		<path style="fill:#FFFFFF;" d="M187.731,478.878v3.947h-0.344l-2.537-3.202v3.202h-0.417v-3.947h0.344l2.543,3.203v-3.203H187.731
			z"/>
		<path style="fill:#FFFFFF;" d="M193.093,478.878h0.417v3.586h2.21v0.361h-2.627V478.878z"/>
		<path style="fill:#FFFFFF;" d="M200.061,480.851c0-1.15,0.879-2.007,2.075-2.007c1.184,0,2.069,0.851,2.069,2.007
			c0,1.156-0.885,2.007-2.069,2.007C200.941,482.858,200.061,482.002,200.061,480.851z M203.788,480.851
			c0-0.942-0.705-1.635-1.652-1.635c-0.953,0-1.663,0.693-1.663,1.635c0,0.941,0.71,1.635,1.663,1.635
			C203.083,482.486,203.788,481.793,203.788,480.851z"/>
		<path style="fill:#FFFFFF;" d="M211.636,481.77h-2.199l-0.474,1.054h-0.434l1.804-3.947h0.412l1.804,3.947h-0.44L211.636,481.77z
			 M211.484,481.432l-0.947-2.12l-0.947,2.12H211.484z"/>
		<path style="fill:#FFFFFF;" d="M217.28,478.878h1.607c1.263,0,2.114,0.812,2.114,1.974c0,1.161-0.851,1.973-2.114,1.973h-1.607
			V478.878z M218.864,482.464c1.049,0,1.725-0.665,1.725-1.612c0-0.947-0.677-1.613-1.725-1.613h-1.167v3.225H218.864z"/>
		<path style="fill:#FFFFFF;" d="M234.041,481.77h-2.199l-0.474,1.054h-0.434l1.804-3.947h0.412l1.804,3.947h-0.44L234.041,481.77z
			 M233.889,481.432l-0.947-2.12l-0.947,2.12H233.889z"/>
		<path style="fill:#FFFFFF;" d="M239.685,478.878h0.417v3.586h2.21v0.361h-2.627V478.878z"/>
		<path style="fill:#FFFFFF;" d="M247.082,478.878h0.417v3.586h2.21v0.361h-2.627V478.878z"/>
		<path style="fill:#FFFFFF;" d="M260.449,479.239v1.551h2.041v0.361h-2.041v1.675h-0.417v-3.947h2.706v0.361H260.449z"/>
		<path style="fill:#FFFFFF;" d="M267.678,478.878h0.417v3.947h-0.417V478.878z"/>
		<path style="fill:#FFFFFF;" d="M273.456,478.878h0.417v3.586h2.21v0.361h-2.627V478.878z"/>
		<path style="fill:#FFFFFF;" d="M283.644,482.464v0.361h-2.791v-3.947h2.706v0.361h-2.289v1.404h2.041v0.355h-2.041v1.466H283.644z
			"/>
		<path style="fill:#FFFFFF;" d="M294.672,479.239v1.551h2.041v0.361h-2.041v1.675h-0.417v-3.947h2.706v0.361H294.672z"/>
		<path style="fill:#FFFFFF;" d="M301.5,480.851c0-1.15,0.879-2.007,2.075-2.007c1.184,0,2.069,0.851,2.069,2.007
			c0,1.156-0.885,2.007-2.069,2.007C302.379,482.858,301.5,482.002,301.5,480.851z M305.226,480.851
			c0-0.942-0.705-1.635-1.652-1.635c-0.953,0-1.663,0.693-1.663,1.635c0,0.941,0.71,1.635,1.663,1.635
			C304.522,482.486,305.226,481.793,305.226,480.851z"/>
		<path style="fill:#FFFFFF;" d="M313.351,482.825l-0.902-1.269c-0.102,0.011-0.203,0.017-0.316,0.017h-1.06v1.252h-0.417v-3.947
			h1.477c1.004,0,1.613,0.507,1.613,1.353c0,0.62-0.327,1.054-0.902,1.24l0.964,1.353H313.351z M313.328,480.231
			c0-0.632-0.417-0.992-1.207-0.992h-1.048v1.979h1.048C312.911,481.218,313.328,480.851,313.328,480.231z"/>
		<path style="fill:#FFFFFF;" d="M322.907,478.878v3.947h-0.4v-3.158l-1.551,2.656h-0.197l-1.551-2.639v3.14h-0.4v-3.947h0.344
			l1.714,2.926l1.697-2.926H322.907z"/>
		<path style="fill:#FFFFFF;" d="M330.744,481.77h-2.199l-0.473,1.054h-0.434l1.804-3.947h0.411l1.804,3.947h-0.44L330.744,481.77z
			 M330.592,481.432l-0.947-2.12l-0.947,2.12H330.592z"/>
		<path style="fill:#FFFFFF;" d="M336.957,479.239h-1.387v-0.361h3.192v0.361h-1.387v3.586h-0.417V479.239z"/>
		<path style="fill:#FFFFFF;" d="M343.063,482.346l0.164-0.321c0.282,0.276,0.784,0.479,1.302,0.479c0.739,0,1.06-0.31,1.06-0.699
			c0-1.083-2.43-0.417-2.43-1.877c0-0.581,0.451-1.083,1.455-1.083c0.446,0,0.908,0.13,1.224,0.35l-0.141,0.333
			c-0.338-0.22-0.733-0.327-1.083-0.327c-0.722,0-1.043,0.321-1.043,0.716c0,1.083,2.43,0.429,2.43,1.866
			c0,0.581-0.462,1.077-1.472,1.077C343.937,482.858,343.356,482.65,343.063,482.346z"/>
	</g>
</g>
<g>
</g>
<g>
	<g>
		<path style="fill:#FFFFFF;" d="M71.677,294.07c25.025,0,45.304-20.283,45.304-45.31c0-25.016-20.277-45.3-45.304-45.3
			c-25.021,0-45.304,20.284-45.304,45.3C26.374,273.787,46.657,294.07,71.677,294.07L71.677,294.07z"/>
		<path style="fill:#BF8A15;" d="M64.712,256.313h16.674l4.87,3.158h-22.28l-9.999,30.91c-11.048-4.282-21.272-14.208-25.56-25.365
			c-4.573-10.81-4.573-24.39,0.1-35.243c4.38-11.163,14.9-21.24,26.097-25.381c8.809-3.648,20.6-4.033,29.944-1.164
			c10.72,3.069,20.844,10.757,26.732,20.789c6.58,11.002,8.429,24.979,4.43,37.541c-2.525,8.332-7.737,16.31-14.902,22.018
			l-12.308-20.507l17.131,9.554c0.097,0,0.148-0.107,0.097-0.206l-22.44-19.373l29.022,4.429c0.099,0,0.139-0.045,0.139-0.094
			l-0.186-0.147l-27.366-9.595l28.438-6.871c0.096,0,0.096-0.09,0.047-0.14l-29.172,1.901l22.84-17.294
			c0.051-0.094-0.148-0.142-0.199-0.043L81.206,238.2l14.166-24.99c0-0.041,0-0.146-0.09-0.092l-18.509,21.716l3.552-28.534
			c0-0.053-0.099-0.1-0.195-0.053l-8.512,27.711l-7.453-28.539c-0.051-0.047-0.152-0.099-0.199,0l2.052,29.602l-17.578-22.874
			c-0.058-0.053-0.101,0-0.152,0.044l13.297,25.317l-25.132-13.733c-0.047,0-0.143,0.053-0.143,0.096l22.348,18.355l-28.528-3.01
			c-0.102,0.051-0.102,0.139,0,0.186l27.659,8.092l-27.514,8.082c-0.053,0.041-0.053,0.143,0,0.186l28.383-3.306l-22.303,18.943
			c-0.045,0-0.094,0.094,0,0.152l0.299-0.1l17.861-9.353l4.194-6.668h4.765l-3.306-2.337l11.052-17.728l-6.518,20.941l0.011,0.011
			V256.313L64.712,256.313z M64.712,256.313L64.712,256.313L64.712,256.313L64.712,256.313z"/>
		<polygon style="fill:#005429;" points="147.005,279.651 124.74,279.651 142.569,216.012 188.207,216.012 183.857,231.115 
			160.567,231.115 157.58,241.949 180.872,241.949 176.943,255.849 153.656,255.849 147.003,279.651 147.005,279.651 		"/>
		<path style="fill:#005429;" d="M198.525,279.651h-22.006l13.05-46.491h22.006L198.525,279.651L198.525,279.651z M212.77,228.725
			h-22.006l3.584-12.713h22.006L212.77,228.725L212.77,228.725z"/>
		<path style="fill:#005429;" d="M255.619,279.651h-21.58l1.534-5.201c-4.353,3.665-8.786,6.31-15.867,6.31
			c-7.168,0-11.685-3.413-11.685-10.665c0-8.016,3.158-19.96,7.849-28.32c3.411-6.227,9.552-9.469,16.802-9.469
			c6.225,0,10.832,2.733,12.627,6.141l6.143-22.435h22.006l-17.829,63.642V279.651L255.619,279.651z M239.072,246.977
			c-1.966,0-3.924,0.604-5.033,3.327c-1.624,3.923-3.073,7.763-3.073,11.6c0,1.795,1.282,3.327,3.413,3.327
			c1.705,0,2.814-0.511,3.753-1.105l4.438-15.273c-0.77-1.11-2.136-1.879-3.499-1.879V246.977L239.072,246.977z M239.072,246.977
			L239.072,246.977L239.072,246.977L239.072,246.977z"/>
		<path style="fill:#005429;" d="M317.763,259.348h-30.366c-0.603,2.471-1.196,4.181-1.196,6.141c0,0.94,0.171,3.327,3.242,3.327
			c3.07,0,4.436-1.196,5.715-5.715h21.58c-2.728,13.224-18.424,17.741-28.062,17.741c-13.055,0-23.206-1.877-23.206-14.414
			c0-6.91,3.497-18.342,8.105-24.396c5.545-7.252,15.184-9.978,24.06-9.978c13.645,0,22.515,2.811,22.515,14.41
			c0,2.818-1.192,9.042-2.388,12.881V259.348L317.763,259.348z M295.753,243.74c-2.728,0-4.605,1.874-5.799,6.565h9.041
			c0.257-0.937,0.599-2.385,0.599-3.239C299.594,244.506,298.056,243.74,295.753,243.74L295.753,243.74z"/>
		<polygon style="fill:#005429;" points="339.88,279.651 317.872,279.651 335.699,216.012 357.709,216.012 339.88,279.651 		"/>
		<path style="fill:#005429;" d="M368.96,279.651h-22.012l13.053-46.491h22.01L368.96,279.651L368.96,279.651z M383.202,228.725
			h-22.006l3.582-12.713h22.01L383.202,228.725L383.202,228.725L383.202,228.725z"/>
		<path style="fill:#005429;" d="M422.77,233.161l1.915,10.491h-16.842l-4.949,17.66c-0.424,1.363-0.768,3.068-0.768,4.179
			c0,2.046,0.856,2.732,3.838,2.732h4.695l-3.244,11.428h-19.62c-6.484,0-8.957-3.158-8.957-7.939c0-1.955,0.257-4.093,0.939-6.481
			l11.942-42.396h22.01l-2.904,10.323h11.947L422.77,233.161L422.77,233.161z M422.77,233.161L422.77,233.161L422.77,233.161
			L422.77,233.161z"/>
		<polygon style="fill:#005429;" points="124.289,286.801 129.775,286.793 126.279,298.238 120.809,298.24 124.289,286.799 
			124.289,286.801 		"/>
		<polygon style="fill:#005429;" points="143.436,286.812 151.46,286.805 153.518,294.44 153.574,294.44 155.898,286.803 
			160.659,286.799 157.139,298.219 149.461,298.247 147.236,290.092 147.2,290.092 144.765,298.232 139.999,298.236 
			143.436,286.814 143.436,286.812 		"/>
		<polygon style="fill:#005429;" points="171.06,286.816 177.101,286.814 178.156,294.005 183.681,286.808 189.272,286.799 
			180.056,298.223 173.35,298.227 171.06,286.814 171.06,286.816 		"/>
		<polygon style="fill:#005429;" points="199.789,286.818 212.269,286.81 211.565,289.12 204.39,289.129 203.695,291.477 
			210.422,291.472 209.748,293.676 203.025,293.68 202.329,295.944 209.577,295.938 208.847,298.253 196.302,298.263 
			199.789,286.818 199.789,286.818 		"/>
		<polygon style="fill:#005429;" points="253.387,289.604 249.114,289.608 249.961,286.833 263.986,286.82 263.141,289.595 
			258.869,289.6 256.25,298.21 250.77,298.219 253.387,289.604 253.387,289.604 		"/>
		<polygon style="fill:#005429;" points="275.335,286.803 283.646,286.799 284.051,294.436 284.085,294.436 289.039,286.796 
			297.39,286.786 293.921,298.232 288.837,298.236 291.446,289.617 291.405,289.617 285.23,298.24 279.932,298.247 279.182,289.627 
			279.127,289.627 276.523,298.223 271.869,298.226 275.335,286.805 275.335,286.803 		"/>
		<polygon style="fill:#005429;" points="332.309,286.812 340.327,286.805 342.392,294.44 342.444,294.44 344.767,286.801 
			349.526,286.796 346.043,298.247 338.267,298.223 336.106,290.09 336.071,290.09 333.579,298.226 328.815,298.232 332.307,286.81 
			332.309,286.812 		"/>
		<polygon style="fill:#005429;" points="362.68,289.589 358.402,289.591 359.25,286.814 373.278,286.803 372.435,289.578 
			368.16,289.583 365.543,298.223 360.059,298.229 362.682,289.587 362.68,289.589 		"/>
		<path style="fill:#005429;" d="M229.084,290.276c-0.12-0.126-0.126-0.344-0.077-0.52c0.179-0.582,0.905-0.963,2.063-0.963
			c0.685-0.002,1.733,0.075,2.033,0.312c0.321,0.233,0.423,0.584,0.312,0.928h4.857c0.571-2.041-0.715-3.356-6.199-3.355
			c-5.212,0.009-8.167,1.124-8.929,3.616c-0.194,0.653-0.22,1.453,0.317,1.992c1.344,1.335,7.404,1.866,7.917,2.587
			c0.103,0.145,0.141,0.321,0.079,0.524c-0.278,0.921-1.579,1.156-2.715,1.156c-0.723,0-1.661-0.156-1.93-0.454
			c-0.255-0.302-0.255-0.762-0.109-1.055l-5.084,0.011c-0.513,1.772-0.729,3.616,6.343,3.611c5.929-0.006,8.645-1.457,9.327-3.714
			c0.338-1.106,0.002-1.718-0.383-2.112c-1.316-1.356-7.185-1.855-7.821-2.564V290.276L229.084,290.276z M229.084,290.276
			L229.084,290.276L229.084,290.276L229.084,290.276z"/>
		<polygon style="fill:#005429;" points="308.553,286.822 321.033,286.812 320.331,289.125 313.154,289.129 312.459,291.477 
			319.186,291.472 318.512,293.676 311.787,293.68 311.091,295.949 318.341,295.944 317.611,298.258 305.063,298.27 308.553,286.82 
			308.553,286.822 		"/>
		<path style="fill:#005429;" d="M452.479,233.161l-11.942,25.761l0.342-25.761h-22.265l4.265,46.491
			c-0.546,2.722-1.444,4.256-3.152,5.014c-1.87,0.83-6.094,0.685-7.581,0.601l-0.27,0.015l-3.507,12.632l15.021,0.015
			c8.872,0,13.224-4.461,19.534-14.354L475,233.159h-22.52L452.479,233.161L452.479,233.161z M452.479,233.161L452.479,233.161
			L452.479,233.161L452.479,233.161z"/>
		<path style="fill:#005429;" d="M387.508,290.251c-0.12-0.131-0.124-0.347-0.077-0.522c0.182-0.584,0.905-0.965,2.063-0.965
			c0.685,0,1.734,0.077,2.033,0.317c0.323,0.229,0.426,0.584,0.313,0.929h4.857c0.573-2.044-0.715-3.364-6.199-3.358
			c-5.213,0.007-8.168,1.124-8.925,3.619c-0.199,0.649-0.223,1.453,0.315,1.988c1.344,1.338,7.404,1.871,7.915,2.589
			c0.105,0.144,0.143,0.321,0.081,0.524c-0.276,0.92-1.579,1.154-2.713,1.156c-0.728,0-1.665-0.154-1.934-0.456
			c-0.25-0.301-0.25-0.757-0.109-1.052l-5.084,0.004c-0.511,1.777-0.73,3.621,6.342,3.617c5.929-0.008,8.645-1.457,9.332-3.719
			c0.336-1.104,0.002-1.716-0.385-2.107c-1.316-1.357-7.185-1.855-7.821-2.564L387.508,290.251L387.508,290.251z M387.508,290.251
			L387.508,290.251L387.508,290.251L387.508,290.251z"/>
		<path style="fill:#005429;" d="M455.949,278.798c-2.204,0-3.986-1.784-3.986-3.986c0-2.202,1.78-3.986,3.986-3.986
			c2.2,0,3.987,1.784,3.987,3.986C459.936,277.014,458.149,278.798,455.949,278.798L455.949,278.798L455.949,278.798z
			 M455.949,269.967c-2.673,0-4.846,2.175-4.846,4.845s2.174,4.847,4.846,4.847c2.666,0,4.842-2.176,4.842-4.847
			C460.792,272.143,458.616,269.967,455.949,269.967L455.949,269.967z"/>
		<path style="fill:#005429;" d="M455.117,274.478v-1.402h0.666c0.567-0.011,1.187,0.025,1.187,0.695
			c0,0.671-0.618,0.706-1.187,0.706H455.117L455.117,274.478z M457.888,273.81c0-0.965-0.56-1.508-1.765-1.508h-1.881v4.999h0.875
			v-2.046h0.666l1.25,2.046h0.963l-1.308-2.118c0.687-0.084,1.203-0.505,1.203-1.372H457.888L457.888,273.81z M457.888,273.81
			L457.888,273.81L457.888,273.81L457.888,273.81z"/>
		<path style="fill:#005429;" d="M452.445,233.273l-11.904,25.676l0.343-25.676h-22.188l4.252,46.331
			c-0.544,2.714-1.442,4.24-3.143,4.997c-1.862,0.826-6.071,0.68-7.556,0.597l-0.265,0.015l-3.499,12.591l14.968,0.012
			c8.844,0,13.181-4.442,19.47-14.302l31.964-50.242h-22.44L452.445,233.273L452.445,233.273z"/>
	</g>
	<g>
		<path style="fill:#FFFFFF;" d="M71.677,294.07c25.025,0,45.304-20.283,45.304-45.31c0-25.016-20.277-45.3-45.304-45.3
			c-25.021,0-45.304,20.284-45.304,45.3C26.374,273.787,46.657,294.07,71.677,294.07L71.677,294.07z"/>
		<path style="fill:#BF8A15;" d="M64.712,256.313h16.674l4.87,3.158h-22.28l-9.999,30.91c-11.048-4.282-21.272-14.208-25.56-25.365
			c-4.573-10.81-4.573-24.39,0.1-35.243c4.38-11.163,14.9-21.24,26.097-25.381c8.809-3.648,20.6-4.033,29.944-1.164
			c10.72,3.069,20.844,10.757,26.732,20.789c6.58,11.002,8.429,24.979,4.43,37.541c-2.525,8.332-7.737,16.31-14.902,22.018
			l-12.308-20.507l17.131,9.554c0.097,0,0.148-0.107,0.097-0.206l-22.44-19.373l29.022,4.429c0.099,0,0.139-0.045,0.139-0.094
			l-0.186-0.147l-27.366-9.595l28.438-6.871c0.096,0,0.096-0.09,0.047-0.14l-29.172,1.901l22.84-17.294
			c0.051-0.094-0.148-0.142-0.199-0.043L81.206,238.2l14.166-24.99c0-0.041,0-0.146-0.09-0.092l-18.509,21.716l3.552-28.534
			c0-0.053-0.099-0.1-0.195-0.053l-8.512,27.711l-7.453-28.539c-0.051-0.047-0.152-0.099-0.199,0l2.052,29.602l-17.578-22.874
			c-0.058-0.053-0.101,0-0.152,0.044l13.297,25.317l-25.132-13.733c-0.047,0-0.143,0.053-0.143,0.096l22.348,18.355l-28.528-3.01
			c-0.102,0.051-0.102,0.139,0,0.186l27.659,8.092l-27.514,8.082c-0.053,0.041-0.053,0.143,0,0.186l28.383-3.306l-22.303,18.943
			c-0.045,0-0.094,0.094,0,0.152l0.299-0.1l17.861-9.353l4.194-6.668h4.765l-3.306-2.337l11.052-17.728l-6.518,20.941l0.011,0.011
			V256.313L64.712,256.313z M64.712,256.313L64.712,256.313L64.712,256.313L64.712,256.313z"/>
		<polygon style="fill:#005429;" points="147.005,279.651 124.74,279.651 142.569,216.012 188.207,216.012 183.857,231.115 
			160.567,231.115 157.58,241.949 180.872,241.949 176.943,255.849 153.656,255.849 147.003,279.651 147.005,279.651 		"/>
		<path style="fill:#005429;" d="M198.525,279.651h-22.006l13.05-46.491h22.006L198.525,279.651L198.525,279.651z M212.77,228.725
			h-22.006l3.584-12.713h22.006L212.77,228.725L212.77,228.725z"/>
		<path style="fill:#005429;" d="M255.619,279.651h-21.58l1.534-5.201c-4.353,3.665-8.786,6.31-15.867,6.31
			c-7.168,0-11.685-3.413-11.685-10.665c0-8.016,3.158-19.96,7.849-28.32c3.411-6.227,9.552-9.469,16.802-9.469
			c6.225,0,10.832,2.733,12.627,6.141l6.143-22.435h22.006l-17.829,63.642V279.651L255.619,279.651z M239.072,246.977
			c-1.966,0-3.924,0.604-5.033,3.327c-1.624,3.923-3.073,7.763-3.073,11.6c0,1.795,1.282,3.327,3.413,3.327
			c1.705,0,2.814-0.511,3.753-1.105l4.438-15.273c-0.77-1.11-2.136-1.879-3.499-1.879V246.977L239.072,246.977z M239.072,246.977
			L239.072,246.977L239.072,246.977L239.072,246.977z"/>
		<path style="fill:#005429;" d="M317.763,259.348h-30.366c-0.603,2.471-1.196,4.181-1.196,6.141c0,0.94,0.171,3.327,3.242,3.327
			c3.07,0,4.436-1.196,5.715-5.715h21.58c-2.728,13.224-18.424,17.741-28.062,17.741c-13.055,0-23.206-1.877-23.206-14.414
			c0-6.91,3.497-18.342,8.105-24.396c5.545-7.252,15.184-9.978,24.06-9.978c13.645,0,22.515,2.811,22.515,14.41
			c0,2.818-1.192,9.042-2.388,12.881V259.348L317.763,259.348z M295.753,243.74c-2.728,0-4.605,1.874-5.799,6.565h9.041
			c0.257-0.937,0.599-2.385,0.599-3.239C299.594,244.506,298.056,243.74,295.753,243.74L295.753,243.74z"/>
		<polygon style="fill:#005429;" points="339.88,279.651 317.872,279.651 335.699,216.012 357.709,216.012 339.88,279.651 		"/>
		<path style="fill:#005429;" d="M368.96,279.651h-22.012l13.053-46.491h22.01L368.96,279.651L368.96,279.651z M383.202,228.725
			h-22.006l3.582-12.713h22.01L383.202,228.725L383.202,228.725L383.202,228.725z"/>
		<path style="fill:#005429;" d="M422.77,233.161l1.915,10.491h-16.842l-4.949,17.66c-0.424,1.363-0.768,3.068-0.768,4.179
			c0,2.046,0.856,2.732,3.838,2.732h4.695l-3.244,11.428h-19.62c-6.484,0-8.957-3.158-8.957-7.939c0-1.955,0.257-4.093,0.939-6.481
			l11.942-42.396h22.01l-2.904,10.323h11.947L422.77,233.161L422.77,233.161z M422.77,233.161L422.77,233.161L422.77,233.161
			L422.77,233.161z"/>
		<polygon style="fill:#005429;" points="124.289,286.801 129.775,286.793 126.279,298.238 120.809,298.24 124.289,286.799 
			124.289,286.801 		"/>
		<polygon style="fill:#005429;" points="143.436,286.812 151.46,286.805 153.518,294.44 153.574,294.44 155.898,286.803 
			160.659,286.799 157.139,298.219 149.461,298.247 147.236,290.092 147.2,290.092 144.765,298.232 139.999,298.236 
			143.436,286.814 143.436,286.812 		"/>
		<polygon style="fill:#005429;" points="171.06,286.816 177.101,286.814 178.156,294.005 183.681,286.808 189.272,286.799 
			180.056,298.223 173.35,298.227 171.06,286.814 171.06,286.816 		"/>
		<polygon style="fill:#005429;" points="199.789,286.818 212.269,286.81 211.565,289.12 204.39,289.129 203.695,291.477 
			210.422,291.472 209.748,293.676 203.025,293.68 202.329,295.944 209.577,295.938 208.847,298.253 196.302,298.263 
			199.789,286.818 199.789,286.818 		"/>
		<polygon style="fill:#005429;" points="253.387,289.604 249.114,289.608 249.961,286.833 263.986,286.82 263.141,289.595 
			258.869,289.6 256.25,298.21 250.77,298.219 253.387,289.604 253.387,289.604 		"/>
		<polygon style="fill:#005429;" points="275.335,286.803 283.646,286.799 284.051,294.436 284.085,294.436 289.039,286.796 
			297.39,286.786 293.921,298.232 288.837,298.236 291.446,289.617 291.405,289.617 285.23,298.24 279.932,298.247 279.182,289.627 
			279.127,289.627 276.523,298.223 271.869,298.226 275.335,286.805 275.335,286.803 		"/>
		<polygon style="fill:#005429;" points="332.309,286.812 340.327,286.805 342.392,294.44 342.444,294.44 344.767,286.801 
			349.526,286.796 346.043,298.247 338.267,298.223 336.106,290.09 336.071,290.09 333.579,298.226 328.815,298.232 332.307,286.81 
			332.309,286.812 		"/>
		<polygon style="fill:#005429;" points="362.68,289.589 358.402,289.591 359.25,286.814 373.278,286.803 372.435,289.578 
			368.16,289.583 365.543,298.223 360.059,298.229 362.682,289.587 362.68,289.589 		"/>
		<path style="fill:#005429;" d="M229.084,290.276c-0.12-0.126-0.126-0.344-0.077-0.52c0.179-0.582,0.905-0.963,2.063-0.963
			c0.685-0.002,1.733,0.075,2.033,0.312c0.321,0.233,0.423,0.584,0.312,0.928h4.857c0.571-2.041-0.715-3.356-6.199-3.355
			c-5.212,0.009-8.167,1.124-8.929,3.616c-0.194,0.653-0.22,1.453,0.317,1.992c1.344,1.335,7.404,1.866,7.917,2.587
			c0.103,0.145,0.141,0.321,0.079,0.524c-0.278,0.921-1.579,1.156-2.715,1.156c-0.723,0-1.661-0.156-1.93-0.454
			c-0.255-0.302-0.255-0.762-0.109-1.055l-5.084,0.011c-0.513,1.772-0.729,3.616,6.343,3.611c5.929-0.006,8.645-1.457,9.327-3.714
			c0.338-1.106,0.002-1.718-0.383-2.112c-1.316-1.356-7.185-1.855-7.821-2.564V290.276L229.084,290.276z M229.084,290.276
			L229.084,290.276L229.084,290.276L229.084,290.276z"/>
		<polygon style="fill:#005429;" points="308.553,286.822 321.033,286.812 320.331,289.125 313.154,289.129 312.459,291.477 
			319.186,291.472 318.512,293.676 311.787,293.68 311.091,295.949 318.341,295.944 317.611,298.258 305.063,298.27 308.553,286.82 
			308.553,286.822 		"/>
		<path style="fill:#005429;" d="M452.479,233.161l-11.942,25.761l0.342-25.761h-22.265l4.265,46.491
			c-0.546,2.722-1.444,4.256-3.152,5.014c-1.87,0.83-6.094,0.685-7.581,0.601l-0.27,0.015l-3.507,12.632l15.021,0.015
			c8.872,0,13.224-4.461,19.534-14.354L475,233.159h-22.52L452.479,233.161L452.479,233.161z M452.479,233.161L452.479,233.161
			L452.479,233.161L452.479,233.161z"/>
		<path style="fill:#005429;" d="M387.508,290.251c-0.12-0.131-0.124-0.347-0.077-0.522c0.182-0.584,0.905-0.965,2.063-0.965
			c0.685,0,1.734,0.077,2.033,0.317c0.323,0.229,0.426,0.584,0.313,0.929h4.857c0.573-2.044-0.715-3.364-6.199-3.358
			c-5.213,0.007-8.168,1.124-8.925,3.619c-0.199,0.649-0.223,1.453,0.315,1.988c1.344,1.338,7.404,1.871,7.915,2.589
			c0.105,0.144,0.143,0.321,0.081,0.524c-0.276,0.92-1.579,1.154-2.713,1.156c-0.728,0-1.665-0.154-1.934-0.456
			c-0.25-0.301-0.25-0.757-0.109-1.052l-5.084,0.004c-0.511,1.777-0.73,3.621,6.342,3.617c5.929-0.008,8.645-1.457,9.332-3.719
			c0.336-1.104,0.002-1.716-0.385-2.107c-1.316-1.357-7.185-1.855-7.821-2.564L387.508,290.251L387.508,290.251z M387.508,290.251
			L387.508,290.251L387.508,290.251L387.508,290.251z"/>
		<path style="fill:#005429;" d="M455.949,278.798c-2.204,0-3.986-1.784-3.986-3.986c0-2.202,1.78-3.986,3.986-3.986
			c2.2,0,3.987,1.784,3.987,3.986C459.936,277.014,458.149,278.798,455.949,278.798L455.949,278.798L455.949,278.798z
			 M455.949,269.967c-2.673,0-4.846,2.175-4.846,4.845s2.174,4.847,4.846,4.847c2.666,0,4.842-2.176,4.842-4.847
			C460.792,272.143,458.616,269.967,455.949,269.967L455.949,269.967z"/>
		<path style="fill:#005429;" d="M455.117,274.478v-1.402h0.666c0.567-0.011,1.187,0.025,1.187,0.695
			c0,0.671-0.618,0.706-1.187,0.706H455.117L455.117,274.478z M457.888,273.81c0-0.965-0.56-1.508-1.765-1.508h-1.881v4.999h0.875
			v-2.046h0.666l1.25,2.046h0.963l-1.308-2.118c0.687-0.084,1.203-0.505,1.203-1.372H457.888L457.888,273.81z M457.888,273.81
			L457.888,273.81L457.888,273.81L457.888,273.81z"/>
		<path style="fill:#005429;" d="M452.445,233.273l-11.904,25.676l0.343-25.676h-22.188l4.252,46.331
			c-0.544,2.714-1.442,4.24-3.143,4.997c-1.862,0.826-6.071,0.68-7.556,0.597l-0.265,0.015l-3.499,12.591l14.968,0.012
			c8.844,0,13.181-4.442,19.47-14.302l31.964-50.242h-22.44L452.445,233.273L452.445,233.273z"/>
	</g>
</g>
</svg>
